# xmcd
#
# Track frame offsets:
# 180
# 15794
# 30830
# 48489
# 62490
# 76685
# 90138
# 108248
# 126480
# 141863
#
# Disc length: 2135 seconds
#
#
# Revision: 0
# Processed by: cddbd v1.4PL0 Copyright (c) Steve Scherf et al.
# Submitted via: FreeRIP 2.51 
#
DISCID=6608550a
DTITLE=KC Jones - Hearts Were Bound
DYEAR=1996
DGENRE=Country
TTITLE0=She's Gone
TTITLE1=Dance All Night
TTITLE2=The Only Way is the Highway
TTITLE3=Home in the Summertime
TTITLE4=Follow Your Heart
TTITLE5=Stay Away From Alone
TTITLE6=Hearts Were Bound
TTITLE7=You Set Me Free
TTITLE8=Deja Vu
TTITLE9=Already Restless
EXTD=
EXTT0=
EXTT1=
EXTT2=
EXTT3=
EXTT4=
EXTT5=
EXTT6=
EXTT7=
EXTT8=
EXTT9=
PLAYORDER=
